<?xml version="1.0" encoding="UTF-8"?>
<svg version="1.1" xmlns="http://www.w3.org/2000/svg" width="500" height="500">
<path d="M0 0 C0 6.27 0 12.54 0 19 C5.94 19 11.88 19 18 19 C18 24.94 18 30.88 18 37 C23.94 37 29.88 37 36 37 C36 61.42 36 85.84 36 111 C30.06 111 24.12 111 18 111 C18 116.94 18 122.88 18 129 C12.06 129 6.12 129 0 129 C0 134.94 0 140.88 0 147 C-5.94 147 -11.88 147 -18 147 C-18 152.94 -18 158.88 -18 165 C-23.94 165 -29.88 165 -36 165 C-36 170.94 -36 176.88 -36 183 C-41.94 183 -47.88 183 -54 183 C-54 188.94 -54 194.88 -54 201 C-66.54 201 -79.08 201 -92 201 C-92 195.06 -92 189.12 -92 183 C-97.94 183 -103.88 183 -110 183 C-110 177.06 -110 171.12 -110 165 C-115.94 165 -121.88 165 -128 165 C-128 159.06 -128 153.12 -128 147 C-133.94 147 -139.88 147 -146 147 C-146 141.06 -146 135.12 -146 129 C-151.94 129 -157.88 129 -164 129 C-164 123.06 -164 117.12 -164 111 C-169.94 111 -175.88 111 -182 111 C-182 86.58 -182 62.16 -182 37 C-173.585 36.505 -173.585 36.505 -165 36 C-164.67 30.39 -164.34 24.78 -164 19 C-158.06 19 -152.12 19 -146 19 C-146 13.06 -146 7.12 -146 1 C-127.85 1 -109.7 1 -91 1 C-91 6.94 -91 12.88 -91 19 C-79.12 19 -67.24 19 -55 19 C-55 13.06 -55 7.12 -55 1 C-47.32788303 0.85746746 -39.65576386 0.71505431 -31.98364258 0.57275391 C-29.37133727 0.52428451 -26.75903259 0.47578195 -24.14672852 0.42724609 C-20.40120602 0.35766103 -16.65568137 0.28819356 -12.91015625 0.21875 C-11.73413345 0.19687622 -10.55811066 0.17500244 -9.34645081 0.15246582 C-8.26540573 0.13244507 -7.18436066 0.11242432 -6.07055664 0.09179688 C-5.11347305 0.07403198 -4.15638947 0.05626709 -3.17030334 0.03796387 C-1 0 -1 0 0 0 Z M-145 38 C-145 49.55 -145 61.1 -145 73 C-139.39 73 -133.78 73 -128 73 C-128 67.06 -128 61.12 -128 55 C-122.06 55 -116.12 55 -110 55 C-110 49.72 -110 44.44 -110 39 C-121.55 38.67 -133.1 38.34 -145 38 Z M-145 92 C-145 97.94 -145 103.88 -145 110 C-142.380625 110.020625 -139.76125 110.04125 -137.0625 110.0625 C-135.82318726 110.07615601 -135.82318726 110.07615601 -134.55883789 110.09008789 C-132.70566241 110.09723945 -130.85250692 110.0502852 -129 110 C-127.17883997 108.17883997 -127.8676492 105.69328236 -127.86328125 103.2734375 C-127.86908203 102.14808594 -127.86908203 102.14808594 -127.875 101 C-127.87113281 100.24976563 -127.86726563 99.49953125 -127.86328125 98.7265625 C-127.52324459 95.06393883 -127.52324459 95.06393883 -129 92 C-131.6986905 91.92674564 -134.36502556 91.90777649 -137.0625 91.9375 C-140.9915625 91.9684375 -140.9915625 91.9684375 -145 92 Z " fill="#FA0100" transform="translate(323,158)"/>
<path d="M0 0 C0 6.27 0 12.54 0 19 C5.94 19 11.88 19 18 19 C18 24.94 18 30.88 18 37 C23.94 37 29.88 37 36 37 C36 61.42 36 85.84 36 111 C30.06 111 24.12 111 18 111 C18 116.94 18 122.88 18 129 C12.06 129 6.12 129 0 129 C0 134.94 0 140.88 0 147 C-5.94 147 -11.88 147 -18 147 C-18 152.94 -18 158.88 -18 165 C-23.94 165 -29.88 165 -36 165 C-36 170.94 -36 176.88 -36 183 C-41.94 183 -47.88 183 -54 183 C-54 188.94 -54 194.88 -54 201 C-66.54 201 -79.08 201 -92 201 C-92 195.06 -92 189.12 -92 183 C-97.94 183 -103.88 183 -110 183 C-110 177.06 -110 171.12 -110 165 C-115.94 165 -121.88 165 -128 165 C-128 159.06 -128 153.12 -128 147 C-133.94 147 -139.88 147 -146 147 C-146 141.06 -146 135.12 -146 129 C-151.94 129 -157.88 129 -164 129 C-164 123.06 -164 117.12 -164 111 C-169.94 111 -175.88 111 -182 111 C-182 86.58 -182 62.16 -182 37 C-173.585 36.505 -173.585 36.505 -165 36 C-164.67 30.39 -164.34 24.78 -164 19 C-158.06 19 -152.12 19 -146 19 C-146 13.06 -146 7.12 -146 1 C-127.85 1 -109.7 1 -91 1 C-91 6.94 -91 12.88 -91 19 C-79.12 19 -67.24 19 -55 19 C-55 13.06 -55 7.12 -55 1 C-47.32788303 0.85746746 -39.65576386 0.71505431 -31.98364258 0.57275391 C-29.37133727 0.52428451 -26.75903259 0.47578195 -24.14672852 0.42724609 C-20.40120602 0.35766103 -16.65568137 0.28819356 -12.91015625 0.21875 C-11.73413345 0.19687622 -10.55811066 0.17500244 -9.34645081 0.15246582 C-8.26540573 0.13244507 -7.18436066 0.11242432 -6.07055664 0.09179688 C-5.11347305 0.07403198 -4.15638947 0.05626709 -3.17030334 0.03796387 C-1 0 -1 0 0 0 Z M-55 19 C-55 24.94 -55 30.88 -55 37 C-66.88 37 -78.76 37 -91 37 C-91 31.72 -91 26.44 -91 21 C-92.01636959 19.76157355 -92.01636959 19.76157355 -94.13233948 19.87974548 C-95.54131752 19.8830764 -95.54131752 19.8830764 -96.97875977 19.88647461 C-98.57029625 19.88658791 -98.57029625 19.88658791 -100.19398499 19.88670349 C-101.348134 19.89186478 -102.50228302 19.89702606 -103.69140625 19.90234375 C-105.4538694 19.90446617 -105.4538694 19.90446617 -107.25193787 19.90663147 C-111.02215064 19.91225008 -114.79230504 19.92480574 -118.5625 19.9375 C-121.11132727 19.9425126 -123.66015547 19.94707592 -126.20898438 19.95117188 C-132.47269709 19.96137669 -138.73628284 19.98094848 -145 20 C-145.33 29.9 -145.66 39.8 -146 50 C-146.33 46.37 -146.66 42.74 -147 39 C-149.47923801 38.97314905 -151.9581884 38.95323453 -154.4375 38.9375 C-155.49807617 38.92493164 -155.49807617 38.92493164 -156.58007812 38.91210938 C-158.38693559 38.90346412 -160.19387603 38.94779989 -162 39 C-163.31747011 40.092183 -163.31747011 40.092183 -163.12025452 42.77772522 C-163.11803391 44.01904709 -163.11581329 45.26036896 -163.11352539 46.53930664 C-163.11367142 47.22220261 -163.11381744 47.90509857 -163.1139679 48.60868835 C-163.11326876 50.87587614 -163.1054764 53.14298274 -163.09765625 55.41015625 C-163.09579207 56.97814387 -163.09436817 58.54613207 -163.09336853 60.11412048 C-163.08954334 64.24876503 -163.07971306 68.38337466 -163.06866455 72.51800537 C-163.05845044 76.73400398 -163.05387091 80.95000822 -163.04882812 85.16601562 C-163.03809078 93.44402826 -163.02049399 101.72200577 -163 110 C-157.39 110 -151.78 110 -146 110 C-146 115.94 -146 121.88 -146 128 C-140.06 128.33 -134.12 128.66 -128 129 C-127.505 137.415 -127.505 137.415 -127 146 C-121.06 146.33 -115.12 146.66 -109 147 C-108.8046875 150.28776042 -108.609375 153.57552083 -108.4140625 156.86328125 C-108.21386253 160.15699887 -108.21386253 160.15699887 -106 163 C-102.72034018 163.54969242 -102.72034018 163.54969242 -99 163.625 C-92.16143498 163.91928251 -92.16143498 163.91928251 -90 165 C-89.68658574 167.55757859 -89.48771761 169.99643821 -89.375 172.5625 C-89.25125 175.016875 -89.1275 177.47125 -89 180 C-84.05 180 -79.1 180 -74 180 C-74 175.05 -74 170.1 -74 165 C-67.73 165 -61.46 165 -55 165 C-55 159.06 -55 153.12 -55 147 C-49.06 147 -43.12 147 -37 147 C-35.17098412 142.42746031 -34.77146413 140.39838207 -34.875 135.6875 C-34.89304687 134.61886719 -34.91109375 133.55023438 -34.9296875 132.44921875 C-34.95289063 131.64097656 -34.97609375 130.83273437 -35 130 C-33.94039062 130.01160156 -32.88078125 130.02320313 -31.7890625 130.03515625 C-30.40104342 130.04453476 -29.01302245 130.05363489 -27.625 130.0625 C-26.57699219 130.07506836 -26.57699219 130.07506836 -25.5078125 130.08789062 C-21.62704624 130.1835442 -21.62704624 130.1835442 -18 129 C-18 122.73 -18 116.46 -18 110 C-12.06 110 -6.12 110 0 110 C0.02255243 100.62963746 0.0409159 91.25929282 0.05181217 81.88890934 C0.05704065 77.53831541 0.06413765 73.18774093 0.07543945 68.8371582 C0.08626959 64.64209742 0.0922771 60.44705541 0.09487724 56.25198174 C0.09673126 54.64793032 0.10035144 53.04387997 0.10573006 51.4398365 C0.11294219 49.20083485 0.11399087 46.9619117 0.11352539 44.72290039 C0.115746 43.44604874 0.11796661 42.16919708 0.12025452 40.85365295 C0.32668089 38.10111145 0.32668089 38.10111145 -1 37 C-3.86469325 36.92669669 -6.69893674 36.90782169 -9.5625 36.9375 C-12.346875 36.958125 -15.13125 36.97875 -18 37 C-18 31.06 -18 25.12 -18 19 C-30.21 19 -42.42 19 -55 19 Z " fill="#870102" transform="translate(323,158)"/>
<path d="M0 0 C18.15 0 36.3 0 55 0 C55 5.94 55 11.88 55 18 C66.88 18 78.76 18 91 18 C91 23.94 91 29.88 91 36 C79.12 36 67.24 36 55 36 C54.67 30.72 54.34 25.44 54 20 C36.51 19.67 19.02 19.34 1 19 C1.020625 23.475625 1.04125 27.95125 1.0625 32.5625 C1.09212976 45.73473508 0.72358362 58.8462835 0 72 C-0.33 72 -0.66 72 -1 72 C-1 60.78 -1 49.56 -1 38 C-5.95 38.33 -10.9 38.66 -16 39 C-16.33 62.1 -16.66 85.2 -17 109 C-11.39 109 -5.78 109 0 109 C0 114.94 0 120.88 0 127 C5.87883003 126.96042231 5.87883003 126.96042231 11.75756836 126.90991211 C12.48596924 126.90741455 13.21437012 126.90491699 13.96484375 126.90234375 C14.7137085 126.89710693 15.46257324 126.89187012 16.23413086 126.88647461 C18 127 18 127 19 128 C19.07330331 130.86469325 19.09217831 133.69893674 19.0625 136.5625 C19.041875 139.346875 19.02125 142.13125 19 145 C24.94 145 30.88 145 37 145 C37 150.94 37 156.88 37 163 C31.06 163 25.12 163 19 163 C19 157.39 19 151.78 19 146 C12.73 146 6.46 146 0 146 C0 140.06 0 134.12 0 128 C-5.94 128 -11.88 128 -18 128 C-18 122.06 -18 116.12 -18 110 C-23.94 110 -29.88 110 -36 110 C-36 85.58 -36 61.16 -36 36 C-27.585 35.505 -27.585 35.505 -19 35 C-18.67 29.39 -18.34 23.78 -18 18 C-12.06 18 -6.12 18 0 18 C0 12.06 0 6.12 0 0 Z " fill="#793E3D" transform="translate(177,159)"/>
<path d="M0 0 C6.27 0 12.54 0 19 0 C19 0.33 19 0.66 19 1 C13.06 1 7.12 1 1 1 C1 6.94 1 12.88 1 19 C-4.94 19 -10.88 19 -17 19 C-17 24.94 -17 30.88 -17 37 C-22.94 37 -28.88 37 -35 37 C-35 42.94 -35 48.88 -35 55 C-40.94 55 -46.88 55 -53 55 C-53 60.94 -53 66.88 -53 73 C-58.94 73 -64.88 73 -71 73 C-71 78.94 -71 84.88 -71 91 C-83.54 91 -96.08 91 -109 91 C-109 85.06 -109 79.12 -109 73 C-114.94 73 -120.88 73 -127 73 C-127 67.06 -127 61.12 -127 55 C-132.94 55 -138.88 55 -145 55 C-145 49.06 -145 43.12 -145 37 C-144.67 37 -144.34 37 -144 37 C-144 42.61 -144 48.22 -144 54 C-138.06 54 -132.12 54 -126 54 C-126 48.39 -126 42.78 -126 37 C-125.67 37 -125.34 37 -125 37 C-124.93941406 37.91523438 -124.87882812 38.83046875 -124.81640625 39.7734375 C-124.69072266 41.55621094 -124.69072266 41.55621094 -124.5625 43.375 C-124.48128906 44.55835938 -124.40007812 45.74171875 -124.31640625 46.9609375 C-124.18915064 49.91518901 -124.18915064 49.91518901 -123 52 C-120.71669251 52.25694509 -118.42079988 52.40610225 -116.125 52.5 C-109.33150985 52.77899344 -109.33150985 52.77899344 -106 55 C-105.77703797 57.64581609 -105.71851248 59.99279502 -105.8125 62.625 C-105.874375 65.05875 -105.93625 67.4925 -106 70 C-101.05 70 -96.1 70 -91 70 C-91 65.05 -91 60.1 -91 55 C-84.73 55 -78.46 55 -72 55 C-72 49.06 -72 43.12 -72 37 C-66.06 36.67 -60.12 36.34 -54 36 C-53.34 30.72 -52.68 25.44 -52 20 C-43.585 19.505 -43.585 19.505 -35 19 C-35 24.61 -35 30.22 -35 36 C-29.39 36 -23.78 36 -18 36 C-18 30.06 -18 24.12 -18 18 C-12.06 18 -6.12 18 0 18 C0 12.06 0 6.12 0 0 Z " fill="#820102" transform="translate(340,268)"/>
<path d="M0 0 C12.21 0 24.42 0 37 0 C37 5.94 37 11.88 37 18 C42.54973121 17.96042519 42.54973121 17.96042519 48.09936523 17.90991211 C50.06645974 17.90276909 52.03353621 17.94968107 54 18 C55 19 55 19 55.12025452 21.85365295 C55.11803391 23.13050461 55.11581329 24.40735626 55.11352539 25.72290039 C55.11367142 26.4253035 55.11381744 27.1277066 55.1139679 27.85139465 C55.11326872 30.18351278 55.10547617 32.515552 55.09765625 34.84765625 C55.09579208 36.46048438 55.09436818 38.07331307 55.09336853 39.68614197 C55.08954323 43.93915357 55.07971285 48.19213124 55.06866455 52.44512939 C55.05845069 56.7817743 55.05387096 61.11842467 55.04882812 65.45507812 C55.03809059 73.97006942 55.0204937 82.48502659 55 91 C49.06 91 43.12 91 37 91 C37 97.27 37 103.54 37 110 C33.93466836 111.53266582 30.73245728 111.10276471 27.375 111.0625 C26.66859375 111.05798828 25.9621875 111.05347656 25.234375 111.04882812 C23.48954725 111.03703875 21.744763 111.01910324 20 111 C20.02320313 111.80824219 20.04640625 112.61648438 20.0703125 113.44921875 C20.08835937 114.51785156 20.10640625 115.58648437 20.125 116.6875 C20.14820313 117.74324219 20.17140625 118.79898438 20.1953125 119.88671875 C20 123 20 123 18 128 C12.06 128 6.12 128 0 128 C0 133.94 0 139.88 0 146 C-5.94 146 -11.88 146 -18 146 C-18 145.67 -18 145.34 -18 145 C-12.39 145 -6.78 145 -1 145 C-1.01160156 143.71222656 -1.02320313 142.42445313 -1.03515625 141.09765625 C-1.0445327 139.41927228 -1.05363305 137.74088674 -1.0625 136.0625 C-1.07506836 134.78729492 -1.07506836 134.78729492 -1.08789062 133.48632812 C-1.09111328 132.67744141 -1.09433594 131.86855469 -1.09765625 131.03515625 C-1.10289307 130.2862915 -1.10812988 129.53742676 -1.11352539 128.76586914 C-1 127 -1 127 0 126 C2.52596259 125.76346477 5.03107207 125.57826308 7.5625 125.4375 C8.27341797 125.39431641 8.98433594 125.35113281 9.71679688 125.30664062 C11.47761912 125.20028223 13.2387832 125.09961154 15 125 C15.06058594 123.78441406 15.12117188 122.56882812 15.18359375 121.31640625 C15.26798332 119.73175772 15.3526321 118.14712298 15.4375 116.5625 C15.47681641 115.76005859 15.51613281 114.95761719 15.55664062 114.13085938 C15.88671875 108.11328125 15.88671875 108.11328125 17 107 C18.34015221 106.84417697 19.68758903 106.74955858 21.03515625 106.68359375 C21.84404297 106.64169922 22.65292969 106.59980469 23.48632812 106.55664062 C24.33646484 106.51732422 25.18660156 106.47800781 26.0625 106.4375 C26.91650391 106.39431641 27.77050781 106.35113281 28.65039062 106.30664062 C30.76672037 106.20023298 32.88333813 106.09958269 35 106 C35 100.72 35 95.44 35 90 C42.9375 89.5625 42.9375 89.5625 45.44116211 89.43188477 C49.02044292 89.53795177 49.02044292 89.53795177 52 88 C52.10460718 85.98593871 52.13855828 83.96818089 52.14526367 81.95141602 C52.15164352 80.65659805 52.15802338 79.36178009 52.16459656 78.02772522 C52.16612511 76.60311927 52.16723914 75.17851283 52.16796875 73.75390625 C52.17117962 72.30281033 52.17454356 70.85171473 52.17805481 69.40061951 C52.18405246 66.35488128 52.18589407 63.30917145 52.18530273 60.26342773 C52.18520109 56.35464143 52.19885309 52.44603668 52.21607494 48.53729343 C52.22717671 45.5390692 52.22922251 42.5408891 52.22869301 39.54264641 C52.22987589 38.10130119 52.23431486 36.65995492 52.24202538 35.21862984 C52.25178786 33.20510304 52.24769271 31.19152332 52.24291992 29.17797852 C52.24434494 28.03071793 52.24576996 26.88345734 52.24723816 25.70143127 C52.27673335 22.85025472 52.27673335 22.85025472 50 21 C48.948125 21.185625 47.89625 21.37125 46.8125 21.5625 C43 22 43 22 36 19 C36 13.39 36 7.78 36 2 C19.665 2.495 19.665 2.495 3 3 C2.67 8.28 2.34 13.56 2 19 C-0.54175722 21.54175722 -2.19568997 21.25724889 -5.6640625 21.30354309 C-6.43492187 21.30263168 -7.20578125 21.30172028 -8 21.30078125 C-8.79148437 21.30506638 -9.58296875 21.3093515 -10.3984375 21.31376648 C-12.07290693 21.31951298 -13.74740132 21.32000768 -15.421875 21.31567383 C-17.99001412 21.31251229 -20.5570033 21.3359731 -23.125 21.36132812 C-24.74999854 21.36360086 -26.37500019 21.36430473 -28 21.36328125 C-29.15628906 21.37709587 -29.15628906 21.37709587 -30.3359375 21.39118958 C-32.5 21.37231445 -32.5 21.37231445 -36 21 C-38.45391569 17.31912647 -38.22802759 14.55644412 -38.125 10.3125 C-38.11597656 9.61060547 -38.10695313 8.90871094 -38.09765625 8.18554688 C-38.07413704 6.45688475 -38.03826713 4.72839855 -38 3 C-39.33611328 3.10828125 -39.33611328 3.10828125 -40.69921875 3.21875 C-55.12576561 4.23609709 -69.54441129 4.09588869 -84 4 C-84.309375 4.639375 -84.61875 5.27875 -84.9375 5.9375 C-86 8 -86 8 -87 9 C-87.04063832 10.66617115 -87.042721 12.33388095 -87 14 C-79.2064049 15.05037136 -71.66780132 15.00593352 -63.8203125 14.69726562 C-59.62638435 14.61927936 -56.70729946 14.67450149 -52.859375 16.4453125 C-50.10108978 20.23505732 -50.34029519 23.49276453 -50.5 28.0625 C-50.49613281 29.28549805 -50.49613281 29.28549805 -50.4921875 30.53320312 C-50.59017418 36.49569252 -50.59017418 36.49569252 -52.39892578 38.72143555 C-54.42610143 40.34027039 -55.80643177 40.52207244 -58.375 40.75 C-59.12523437 40.82734375 -59.87546875 40.9046875 -60.6484375 40.984375 C-63.22384669 41.00148735 -65.49732851 40.5836619 -68 40 C-68.09087891 41.60681641 -68.09087891 41.60681641 -68.18359375 43.24609375 C-68.26798537 44.64324391 -68.35263406 46.04037857 -68.4375 47.4375 C-68.47681641 48.14455078 -68.51613281 48.85160156 -68.55664062 49.58007812 C-68.88671875 54.88671875 -68.88671875 54.88671875 -70 56 C-71.53781591 56.09902107 -73.08009444 56.13079567 -74.62109375 56.1328125 C-75.55630859 56.13410156 -76.49152344 56.13539063 -77.45507812 56.13671875 C-78.43927734 56.13285156 -79.42347656 56.12898438 -80.4375 56.125 C-81.90799805 56.13080078 -81.90799805 56.13080078 -83.40820312 56.13671875 C-84.34470703 56.13542969 -85.28121094 56.13414062 -86.24609375 56.1328125 C-87.54051392 56.13112061 -87.54051392 56.13112061 -88.86108398 56.12939453 C-91 56 -91 56 -93 55 C-93.33 44.11 -93.66 33.22 -94 22 C-97.3 22 -100.6 22 -104 22 C-106.14652533 25.219788 -106.24913804 26.05578432 -106.24291992 29.75927734 C-106.24599655 30.72392914 -106.24907318 31.68858093 -106.25224304 32.6824646 C-106.24505753 33.72311066 -106.23787201 34.76375671 -106.23046875 35.8359375 C-106.23001053 36.90744049 -106.22955231 37.97894348 -106.2290802 39.08291626 C-106.22605759 41.35086167 -106.21817106 43.61880501 -106.20581055 45.88671875 C-106.18760896 49.35424175 -106.18530053 52.82149681 -106.18554688 56.2890625 C-106.1806294 58.4921898 -106.17480009 60.6953153 -106.16796875 62.8984375 C-106.16685593 63.9350351 -106.1657431 64.97163269 -106.16459656 66.03964233 C-106.15821671 67.01059845 -106.15183685 67.98155457 -106.14526367 68.98193359 C-106.14145187 69.83226166 -106.13764008 70.68258972 -106.13371277 71.5586853 C-105.9933789 74.12088738 -105.53248454 76.49312301 -105 79 C-104.88043144 82.00834492 -104.95503411 84.98728504 -105 88 C-99.555 87.505 -99.555 87.505 -94 87 C-93.93941406 85.85660156 -93.87882813 84.71320313 -93.81640625 83.53515625 C-93.73201572 82.04425695 -93.64736698 80.55337225 -93.5625 79.0625 C-93.52318359 78.30775391 -93.48386719 77.55300781 -93.44335938 76.77539062 C-93.11328125 71.11328125 -93.11328125 71.11328125 -92 70 C-90.5112814 69.91330568 -89.018555 69.89296506 -87.52734375 69.90234375 C-86.62822266 69.90556641 -85.72910156 69.90878906 -84.80273438 69.91210938 C-83.38444336 69.92467773 -83.38444336 69.92467773 -81.9375 69.9375 C-80.98810547 69.94201172 -80.03871094 69.94652344 -79.06054688 69.95117188 C-76.70696935 69.9629989 -74.35351523 69.97947975 -72 70 C-70.2958322 75.15946865 -69.77774395 79.4425333 -69.875 84.9375 C-69.88402344 85.62134766 -69.89304688 86.30519531 -69.90234375 87.00976562 C-69.92561042 88.67333287 -69.96146833 90.33671631 -70 92 C-73.30994713 93.65497356 -76.99123 93.10084335 -80.625 93.0625 C-81.42679688 93.05798828 -82.22859375 93.05347656 -83.0546875 93.04882812 C-85.03649006 93.03703168 -87.01825433 93.01909605 -89 93 C-89 97.95 -89 102.9 -89 108 C-87.78441406 107.98839844 -86.56882813 107.97679687 -85.31640625 107.96484375 C-83.73177236 107.95546722 -82.14713682 107.94636687 -80.5625 107.9375 C-79.76005859 107.92912109 -78.95761719 107.92074219 -78.13085938 107.91210938 C-76.08704779 107.9034857 -74.04316098 107.9477185 -72 108 C-71 109 -71 109 -70.90234375 112.59765625 C-70.90808728 114.08597255 -70.92110109 115.57426296 -70.9375 117.0625 C-70.958125 119.681875 -70.97875 122.30125 -71 125 C-65.72 125.33 -60.44 125.66 -55 126 C-55 126.33 -55 126.66 -55 127 C-60.61 127 -66.22 127 -72 127 C-72.33 121.39 -72.66 115.78 -73 110 C-78.94 109.67 -84.88 109.34 -91 109 C-91 103.06 -91 97.12 -91 91 C-96.61 91 -102.22 91 -108 91 C-108.0225528 81.89040511 -108.04091611 72.78082863 -108.05181217 63.6712122 C-108.05704056 59.44168629 -108.0641374 55.2121804 -108.07543945 50.98266602 C-108.08626991 46.90431457 -108.09227717 42.82598243 -108.09487724 38.74761772 C-108.09673121 37.18822361 -108.10035127 35.6288306 -108.10573006 34.06944466 C-108.11294262 31.89270838 -108.11399085 29.71605286 -108.11352539 27.53930664 C-108.115746 26.29798477 -108.11796661 25.0566629 -108.12025452 23.77772522 C-108 21 -108 21 -107 20 C-104.46950598 19.92686433 -101.96695163 19.90752473 -99.4375 19.9375 C-98.72658203 19.94201172 -98.01566406 19.94652344 -97.28320312 19.95117188 C-95.52209987 19.96299136 -93.76103964 19.98092737 -92 20 C-91.67 23.63 -91.34 27.26 -91 31 C-90.67 31 -90.34 31 -90 31 C-90 38.59 -90 46.18 -90 54 C-84.39 54 -78.78 54 -73 54 C-73 48.06 -73 42.12 -73 36 C-67.06 36 -61.12 36 -55 36 C-55 30.72 -55 25.44 -55 20 C-57.44277344 20.01160156 -59.88554687 20.02320313 -62.40234375 20.03515625 C-64.75870636 20.04294684 -67.11506756 20.04902359 -69.47143555 20.05493164 C-71.11369464 20.05997174 -72.75594923 20.06680378 -74.39819336 20.07543945 C-76.75375479 20.08751926 -79.10925709 20.09323139 -81.46484375 20.09765625 C-82.20339096 20.10281754 -82.94193817 20.10797882 -83.7028656 20.11329651 C-85.46898088 20.1134925 -87.23497146 20.06194719 -89 20 C-90 19 -90 19 -90.11352539 17.23413086 C-90.10828857 16.48526611 -90.10305176 15.73640137 -90.09765625 14.96484375 C-90.09443359 14.15595703 -90.09121094 13.34707031 -90.08789062 12.51367188 C-90.07951172 11.66353516 -90.07113281 10.81339844 -90.0625 9.9375 C-90.05798828 9.08349609 -90.05347656 8.22949219 -90.04882812 7.34960938 C-90.03700373 5.23304337 -90.01906769 3.11651315 -90 1 C-82.47030348 0.97473352 -74.9406178 0.95716859 -67.41088867 0.94506836 C-64.84708243 0.9400263 -62.28327909 0.93319286 -59.71948242 0.92456055 C-56.04344979 0.91248936 -52.36745502 0.90677058 -48.69140625 0.90234375 C-47.53725723 0.89718246 -46.38310822 0.89202118 -45.19398499 0.88670349 C-43.6024485 0.88659019 -43.6024485 0.88659019 -41.97875977 0.88647461 C-41.03944107 0.884254 -40.10012238 0.88203339 -39.13233948 0.87974548 C-37 1 -37 1 -36 2 C-36 7.28 -36 12.56 -36 18 C-24.12 18 -12.24 18 0 18 C0 12.06 0 6.12 0 0 Z M-90 73 C-90 78.94 -90 84.88 -90 91 C-87.380625 91.020625 -84.76125 91.04125 -82.0625 91.0625 C-80.82318726 91.07615601 -80.82318726 91.07615601 -79.55883789 91.09008789 C-77.70566241 91.09723945 -75.85250692 91.0502852 -74 91 C-72.17883997 89.17883997 -72.8676492 86.69328236 -72.86328125 84.2734375 C-72.86908203 83.14808594 -72.86908203 83.14808594 -72.875 82 C-72.87113281 81.24976563 -72.86726563 80.49953125 -72.86328125 79.7265625 C-72.52324459 76.06393883 -72.52324459 76.06393883 -74 73 C-76.6986905 72.92674564 -79.36502556 72.90777649 -82.0625 72.9375 C-85.9915625 72.9684375 -85.9915625 72.9684375 -90 73 Z " fill="#DE090A" transform="translate(268,177)"/>
<path d="M0 0 C5.94 0 11.88 0 18 0 C18 23.76 18 47.52 18 72 C11.73 72 5.46 72 -1 72 C-0.67 48.24 -0.34 24.48 0 0 Z " fill="#050101" transform="translate(341,196)"/>
<path d="M0 0 C5.94 0 11.88 0 18 0 C18 23.76 18 47.52 18 72 C12.06 72 6.12 72 0 72 C0 48.24 0 24.48 0 0 Z " fill="#080102" transform="translate(141,196)"/>
<path d="M0 0 C14 0 14 0 17 2 C17.3742218 4.80859375 17.3742218 4.80859375 17.37231445 8.4375 C17.37596512 9.09782227 17.37961578 9.75814453 17.38337708 10.43847656 C17.39149748 12.62591092 17.37786108 14.81260791 17.36328125 17 C17.36276282 18.51692708 17.36327986 20.03385484 17.36479187 21.55078125 C17.36470208 24.73187269 17.35425924 27.91271105 17.33618164 31.09375 C17.31349405 35.17629625 17.31294957 39.25847252 17.31969929 43.34106445 C17.32303692 46.47399193 17.3164131 49.60683467 17.30657005 52.73974609 C17.3027142 54.24527544 17.30157143 55.75081421 17.3031559 57.25634766 C17.30352577 59.3585819 17.29092906 61.46033749 17.2746582 63.5625 C17.27005081 64.76003906 17.26544342 65.95757812 17.26069641 67.19140625 C17 70 17 70 15 72 C10.05 72 5.1 72 0 72 C0 48.24 0 24.48 0 0 Z " fill="#860001" transform="translate(323,196)"/>
<path d="M0 0 C11.88 0 23.76 0 36 0 C36 5.61 36 11.22 36 17 C30.06 17 24.12 17 18 17 C18 22.94 18 28.88 18 35 C12.06 35 6.12 35 0 35 C0 23.45 0 11.9 0 0 Z " fill="#860001" transform="translate(268,305)"/>
<path d="M0 0 C17.49 0 34.98 0 53 0 C53 5.61 53 11.22 53 17 C35.51 17 18.02 17 0 17 C0 11.39 0 5.78 0 0 Z " fill="#060001" transform="translate(269,160)"/>
<path d="M0 0 C17.49 0 34.98 0 53 0 C53 5.61 53 11.22 53 17 C35.51 17 18.02 17 0 17 C0 11.39 0 5.78 0 0 Z " fill="#070001" transform="translate(178,160)"/>
<path d="M0 0 C0 6.27 0 12.54 0 19 C5.94 19 11.88 19 18 19 C18 24.94 18 30.88 18 37 C23.94 37 29.88 37 36 37 C36 37.33 36 37.66 36 38 C30.06 38 24.12 38 18 38 C18 61.43 18 84.86 18 109 C17.01 109 16.02 109 15 109 C15.33 108.67 15.66 108.34 16 108 C16.0942174 105.88318683 16.11742761 103.76319242 16.11352539 101.64428711 C16.11367142 100.98089828 16.11381744 100.31750946 16.1139679 99.63401794 C16.11326881 97.43176044 16.10547665 95.22958655 16.09765625 93.02734375 C16.09579206 91.50419664 16.09436816 89.98104893 16.09336853 88.457901 C16.08954346 84.44162349 16.07971328 80.42538192 16.06866455 76.40911865 C16.05845019 72.31376634 16.05387086 68.21840824 16.04882812 64.12304688 C16.038091 56.08201472 16.02101472 48.04101183 16 40 C13.06772447 38.53386224 10.02763112 38.64517215 6.8046875 38.46484375 C6.09724396 38.42186661 5.38980042 38.37888947 4.66091919 38.33460999 C2.39916894 38.19815223 0.13711498 38.06775752 -2.125 37.9375 C-3.65757592 37.84610192 -5.1901284 37.75430997 -6.72265625 37.66210938 C-10.48149098 37.4360906 -14.2406752 37.2182697 -18 37 C-18 31.06 -18 25.12 -18 19 C-12.39 19 -6.78 19 -1 19 C-1 13.39 -1 7.78 -1 2 C-18.49 2 -35.98 2 -54 2 C-54 7.61 -54 13.22 -54 19 C-54.33 19 -54.66 19 -55 19 C-55 13.06 -55 7.12 -55 1 C-47.32788303 0.85746746 -39.65576386 0.71505431 -31.98364258 0.57275391 C-29.37133727 0.52428451 -26.75903259 0.47578195 -24.14672852 0.42724609 C-20.40120602 0.35766103 -16.65568137 0.28819356 -12.91015625 0.21875 C-11.73413345 0.19687622 -10.55811066 0.17500244 -9.34645081 0.15246582 C-8.26540573 0.13244507 -7.18436066 0.11242432 -6.07055664 0.09179688 C-5.11347305 0.07403198 -4.15638947 0.05626709 -3.17030334 0.03796387 C-1 0 -1 0 0 0 Z " fill="#6D1314" transform="translate(323,158)"/>
<path d="M0 0 C4.78718692 -0.02471738 9.5743367 -0.04286825 14.36157227 -0.05493164 C15.99015958 -0.05996065 17.61874237 -0.06678465 19.24731445 -0.07543945 C21.58806472 -0.08756769 23.9287553 -0.09324263 26.26953125 -0.09765625 C26.99775589 -0.10281754 27.72598053 -0.10797882 28.47627258 -0.11329651 C31.59602288 -0.11364279 34.01633188 0.00544396 37 1 C37 6.94 37 12.88 37 19 C33.828262 20.585869 30.36486178 20.37866445 26.875 20.5625 C26.12089844 20.60568359 25.36679688 20.64886719 24.58984375 20.69335938 C22.72678112 20.7994832 20.86341476 20.90025001 19 21 C19.01160156 22.14339844 19.02320313 23.28679687 19.03515625 24.46484375 C19.04453288 25.95572754 19.05363321 27.44661309 19.0625 28.9375 C19.07087891 29.69224609 19.07925781 30.44699219 19.08789062 31.22460938 C19.09652441 33.14994313 19.05224333 35.07535581 19 37 C17.44926853 38.55073147 15.96937747 38.12969128 13.81640625 38.1328125 C12.97142578 38.13410156 12.12644531 38.13539063 11.25585938 38.13671875 C10.36705078 38.13285156 9.47824219 38.12898438 8.5625 38.125 C7.67755859 38.12886719 6.79261719 38.13273437 5.88085938 38.13671875 C5.03458984 38.13542969 4.18832031 38.13414062 3.31640625 38.1328125 C2.53724854 38.13168457 1.75809082 38.13055664 0.95532227 38.12939453 C-1 38 -1 38 -3 37 C-3.33 26.11 -3.66 15.22 -4 4 C-7.3 4 -10.6 4 -14 4 C-16.14652533 7.219788 -16.24913804 8.05578432 -16.24291992 11.75927734 C-16.24599655 12.72392914 -16.24907318 13.68858093 -16.25224304 14.6824646 C-16.24505753 15.72311066 -16.23787201 16.76375671 -16.23046875 17.8359375 C-16.23001053 18.90744049 -16.22955231 19.97894348 -16.2290802 21.08291626 C-16.22605759 23.35086167 -16.21817106 25.61880501 -16.20581055 27.88671875 C-16.18760896 31.35424175 -16.18530053 34.82149681 -16.18554688 38.2890625 C-16.1806294 40.4921898 -16.17480009 42.6953153 -16.16796875 44.8984375 C-16.16685593 45.9350351 -16.1657431 46.97163269 -16.16459656 48.03964233 C-16.15821671 49.01059845 -16.15183685 49.98155457 -16.14526367 50.98193359 C-16.14145187 51.83226166 -16.13764008 52.68258972 -16.13371277 53.5586853 C-15.9933789 56.12088738 -15.53248454 58.49312301 -15 61 C-14.88043144 64.00834492 -14.95503411 66.98728504 -15 70 C-9.555 69.505 -9.555 69.505 -4 69 C-3.93941406 67.85660156 -3.87882813 66.71320313 -3.81640625 65.53515625 C-3.73201572 64.04425695 -3.64736698 62.55337225 -3.5625 61.0625 C-3.52318359 60.30775391 -3.48386719 59.55300781 -3.44335938 58.77539062 C-3.11328125 53.11328125 -3.11328125 53.11328125 -2 52 C-0.5112814 51.91330568 0.981445 51.89296506 2.47265625 51.90234375 C3.37177734 51.90556641 4.27089844 51.90878906 5.19726562 51.91210938 C6.61555664 51.92467773 6.61555664 51.92467773 8.0625 51.9375 C9.01189453 51.94201172 9.96128906 51.94652344 10.93945312 51.95117188 C13.29303065 51.9629989 15.64648477 51.97947975 18 52 C19.7041678 57.15946865 20.22225605 61.4425333 20.125 66.9375 C20.11597656 67.62134766 20.10695312 68.30519531 20.09765625 69.00976562 C20.07438958 70.67333287 20.03853167 72.33671631 20 74 C16.69005287 75.65497356 13.00877 75.10084335 9.375 75.0625 C8.57320312 75.05798828 7.77140625 75.05347656 6.9453125 75.04882812 C4.96350994 75.03703168 2.98174567 75.01909605 1 75 C1 79.95 1 84.9 1 90 C2.21558594 89.98839844 3.43117187 89.97679687 4.68359375 89.96484375 C6.26822764 89.95546722 7.85286318 89.94636687 9.4375 89.9375 C10.23994141 89.92912109 11.04238281 89.92074219 11.86914062 89.91210938 C13.91295221 89.9034857 15.95683902 89.9477185 18 90 C19 91 19 91 19.09765625 94.59765625 C19.09191272 96.08597255 19.07889891 97.57426296 19.0625 99.0625 C19.041875 101.681875 19.02125 104.30125 19 107 C24.28 107.33 29.56 107.66 35 108 C35 108.33 35 108.66 35 109 C29.39 109 23.78 109 18 109 C17.67 103.39 17.34 97.78 17 92 C11.06 91.67 5.12 91.34 -1 91 C-1 85.06 -1 79.12 -1 73 C-6.61 73 -12.22 73 -18 73 C-18.0225528 63.89040511 -18.04091611 54.78082863 -18.05181217 45.6712122 C-18.05704056 41.44168629 -18.0641374 37.2121804 -18.07543945 32.98266602 C-18.08626991 28.90431457 -18.09227717 24.82598243 -18.09487724 20.74761772 C-18.09673121 19.18822361 -18.10035127 17.6288306 -18.10573006 16.06944466 C-18.11294262 13.89270838 -18.11399085 11.71605286 -18.11352539 9.53930664 C-18.115746 8.29798477 -18.11796661 7.0566629 -18.12025452 5.77772522 C-18 3 -18 3 -17 2 C-14.46950598 1.92686433 -11.96695163 1.90752473 -9.4375 1.9375 C-8.72658203 1.94201172 -8.01566406 1.94652344 -7.28320312 1.95117188 C-5.52209987 1.96299136 -3.76103964 1.98092737 -2 2 C-1.67 5.63 -1.34 9.26 -1 13 C-0.67 13 -0.34 13 0 13 C0 20.59 0 28.18 0 36 C5.61 36 11.22 36 17 36 C17 30.06 17 24.12 17 18 C22.94 18 28.88 18 35 18 C35 12.72 35 7.44 35 2 C23.78 2 12.56 2 1 2 C0.67 1.34 0.34 0.68 0 0 Z M0 55 C0 60.94 0 66.88 0 73 C2.619375 73.020625 5.23875 73.04125 7.9375 73.0625 C9.17681274 73.07615601 9.17681274 73.07615601 10.44116211 73.09008789 C12.29433759 73.09723945 14.14749308 73.0502852 16 73 C17.82116003 71.17883997 17.1323508 68.69328236 17.13671875 66.2734375 C17.13091797 65.14808594 17.13091797 65.14808594 17.125 64 C17.12886719 63.24976563 17.13273437 62.49953125 17.13671875 61.7265625 C17.47675541 58.06393883 17.47675541 58.06393883 16 55 C13.3013095 54.92674564 10.63497444 54.90777649 7.9375 54.9375 C4.0084375 54.9684375 4.0084375 54.9684375 0 55 Z " fill="#D50F10" transform="translate(178,195)"/>
<path d="M0 0 C4.1765625 -0.0309375 4.1765625 -0.0309375 8.4375 -0.0625 C9.75512329 -0.07615601 9.75512329 -0.07615601 11.09936523 -0.09008789 C13.06645974 -0.09723091 15.03353621 -0.05031893 17 0 C18 1 18 1 18.09765625 4.81640625 C18.09191138 6.39847047 18.07889593 7.98051031 18.0625 9.5625 C18.041875 12.346875 18.02125 15.13125 18 18 C23.94 18 29.88 18 36 18 C36 23.94 36 29.88 36 36 C30.06 36 24.12 36 18 36 C17.67 30.39 17.34 24.78 17 19 C11.39 18.67 5.78 18.34 0 18 C0 12.06 0 6.12 0 0 Z " fill="#200405" transform="translate(178,286)"/>
<path d="M0 0 C12.06922363 -0.09578749 23.95462892 0.23521453 36 1 C36 6.61 36 12.22 36 18 C24.12 18 12.24 18 0 18 C0 12.06 0 6.12 0 0 Z " fill="#030101" transform="translate(232,341)"/>
<path d="M0 0 C11.88 0 23.76 0 36 0 C36 5.61 36 11.22 36 17 C24.12 17 12.24 17 0 17 C0 11.39 0 5.78 0 0 Z " fill="#0C0001" transform="translate(232,178)"/>
<path d="M0 0 C6.27 0 12.54 0 19 0 C19 0.33 19 0.66 19 1 C13.06 1 7.12 1 1 1 C1 6.94 1 12.88 1 19 C-4.94 19 -10.88 19 -17 19 C-17 24.94 -17 30.88 -17 37 C-22.94 37 -28.88 37 -35 37 C-35 42.94 -35 48.88 -35 55 C-40.94 55 -46.88 55 -53 55 C-53 60.94 -53 66.88 -53 73 C-58.94 73 -64.88 73 -71 73 C-71 78.94 -71 84.88 -71 91 C-71.33 91 -71.66 91 -72 91 C-72 85.39 -72 79.78 -72 74 C-77.94 74 -83.88 74 -90 74 C-90 73.67 -90 73.34 -90 73 C-77.97128522 72.13750573 -66.06156739 71.91065506 -54 72 C-54 66.06 -54 60.12 -54 54 C-48.06 54 -42.12 54 -36 54 C-36 48.39 -36 42.78 -36 37 C-41.94 37 -47.88 37 -54 37 C-53.34 31.39 -52.68 25.78 -52 20 C-43.585 19.505 -43.585 19.505 -35 19 C-35 24.61 -35 30.22 -35 36 C-29.39 36 -23.78 36 -18 36 C-18 30.06 -18 24.12 -18 18 C-12.06 18 -6.12 18 0 18 C0 12.06 0 6.12 0 0 Z " fill="#824040" transform="translate(340,268)"/>
<path d="M0 0 C4.69163447 -0.02325149 9.38306032 -0.04307207 14.07470703 -0.05493164 C15.66293016 -0.05988784 17.25114891 -0.06665476 18.83935547 -0.07543945 C29.60380471 -0.13338614 40.2654287 0.1842388 51 1 C51 1.33 51 1.66 51 2 C36.02046936 3.32102947 21.02318657 3.09899707 6 3 C5.690625 3.639375 5.38125 4.27875 5.0625 4.9375 C4 7 4 7 3 8 C2.95936168 9.66617115 2.957279 11.33388095 3 13 C10.7935951 14.05037136 18.33219868 14.00593352 26.1796875 13.69726562 C30.37361565 13.61927936 33.29270054 13.67450149 37.140625 15.4453125 C39.89891022 19.23505732 39.65970481 22.49276453 39.5 27.0625 C39.50386719 28.28549805 39.50386719 28.28549805 39.5078125 29.53320312 C39.40982582 35.49569252 39.40982582 35.49569252 37.60107422 37.72143555 C35.57389857 39.34027039 34.19356823 39.52207244 31.625 39.75 C30.87476563 39.82734375 30.12453125 39.9046875 29.3515625 39.984375 C27 40 27 40 22 39 C21.67 43.95 21.34 48.9 21 54 C20.01 54 19.02 54 18 54 C18.11339204 51.35319096 18.24012873 48.70822482 18.375 46.0625 C18.4059375 45.30775391 18.436875 44.55300781 18.46875 43.77539062 C18.5726315 41.84492605 18.77895614 39.92057919 19 38 C22.16965142 36.41517429 25.63744541 36.62147177 29.125 36.4375 C33.023125 36.2209375 33.023125 36.2209375 37 36 C37 30.06 37 24.12 37 18 C18.685 17.505 18.685 17.505 0 17 C0 11.39 0 5.78 0 0 Z " fill="#CB1312" transform="translate(178,178)"/>
<path d="M0 0 C5.94 0 11.88 0 18 0 C18.020625 2.784375 18.04125 5.56875 18.0625 8.4375 C18.071604 9.31591553 18.08070801 10.19433105 18.09008789 11.09936523 C18.09723091 13.06645974 18.05031893 15.03353621 18 17 C17 18 17 18 13.18359375 18.09765625 C11.60152953 18.09191138 10.01948969 18.07889593 8.4375 18.0625 C4.2609375 18.0315625 4.2609375 18.0315625 0 18 C0 12.06 0 6.12 0 0 Z " fill="#110405" transform="translate(214,323)"/>
<path d="M0 0 C0 5.94 0 11.88 0 18 C-5.94 18 -11.88 18 -18 18 C-18 12.39 -18 6.78 -18 1 C-13.8234375 0.7525 -13.8234375 0.7525 -9.5625 0.5 C-8.68408447 0.44779297 -7.80566895 0.39558594 -6.90063477 0.34179688 C-1.11111111 0 -1.11111111 0 0 0 Z " fill="#030001" transform="translate(286,322)"/>
<path d="M0 0 C5.61 0 11.22 0 17 0 C17 5.94 17 11.88 17 18 C11.06 18 5.12 18 -1 18 C-0.505 9.09 -0.505 9.09 0 0 Z " fill="#080001" transform="translate(323,268)"/>
<path d="M0 0 C5.94 0 11.88 0 18 0 C18 5.61 18 11.22 18 17 C12.06 17 6.12 17 0 17 C0 11.39 0 5.78 0 0 Z " fill="#0A0101" transform="translate(286,305)"/>
<path d="M0 0 C5.61 0 11.22 0 17 0 C17 5.94 17 11.88 17 18 C11.39 18 5.78 18 0 18 C0 12.06 0 6.12 0 0 Z " fill="#0A0101" transform="translate(305,286)"/>
<path d="M0 0 C5.61 0 11.22 0 17 0 C17 5.94 17 11.88 17 18 C11.39 18 5.78 18 0 18 C0 12.06 0 6.12 0 0 Z " fill="#030101" transform="translate(160,268)"/>
<path d="M0 0 C5.61 0 11.22 0 17 0 C17 5.61 17 11.22 17 17 C11.39 17 5.78 17 0 17 C0 11.39 0 5.78 0 0 Z " fill="#010001" transform="translate(323,178)"/>
<path d="M0 0 C12.21 0 24.42 0 37 0 C37 5.94 37 11.88 37 18 C36.67 18 36.34 18 36 18 C36 12.72 36 7.44 36 2 C19.665 2.495 19.665 2.495 3 3 C2.67 8.28 2.34 13.56 2 19 C-0.54175722 21.54175722 -2.19568997 21.25724889 -5.6640625 21.30354309 C-6.43492187 21.30263168 -7.20578125 21.30172028 -8 21.30078125 C-8.79148437 21.30506638 -9.58296875 21.3093515 -10.3984375 21.31376648 C-12.07290693 21.31951298 -13.74740132 21.32000768 -15.421875 21.31567383 C-17.99001412 21.31251229 -20.5570033 21.3359731 -23.125 21.36132812 C-24.74999854 21.36360086 -26.37500019 21.36430473 -28 21.36328125 C-29.15628906 21.37709587 -29.15628906 21.37709587 -30.3359375 21.39118958 C-32.5 21.37231445 -32.5 21.37231445 -36 21 C-38.4033248 17.39501281 -38.43713424 14.48872908 -38.625 10.3125 C-38.74875 7.899375 -38.8725 5.48625 -39 3 C-44.28 2.67 -49.56 2.34 -55 2 C-55 1.67 -55 1.34 -55 1 C-52.02077407 0.97316013 -49.04178705 0.95323963 -46.0625 0.9375 C-44.78729492 0.92493164 -44.78729492 0.92493164 -43.48632812 0.91210938 C-42.67744141 0.90888672 -41.86855469 0.90566406 -41.03515625 0.90234375 C-40.2862915 0.89710693 -39.53742676 0.89187012 -38.76586914 0.88647461 C-37 1 -37 1 -36 2 C-36 7.28 -36 12.56 -36 18 C-24.12 18 -12.24 18 0 18 C0 12.06 0 6.12 0 0 Z " fill="#BC1315" transform="translate(268,177)"/>
<path d="M0 0 C5.61 0 11.22 0 17 0 C17 5.61 17 11.22 17 17 C11.39 16.67 5.78 16.34 0 16 C0 10.72 0 5.44 0 0 Z " fill="#090102" transform="translate(160,178)"/>
<path d="M0 0 C5.28 0 10.56 0 16 0 C16 5.61 16 11.22 16 17 C10.72 17 5.44 17 0 17 C0 11.39 0 5.78 0 0 Z " fill="#070001" transform="translate(178,287)"/>
<path d="M0 0 C4.78718692 -0.02471738 9.5743367 -0.04286825 14.36157227 -0.05493164 C15.99015958 -0.05996065 17.61874237 -0.06678465 19.24731445 -0.07543945 C21.58806472 -0.08756769 23.9287553 -0.09324263 26.26953125 -0.09765625 C26.99775589 -0.10281754 27.72598053 -0.10797882 28.47627258 -0.11329651 C31.59602288 -0.11364279 34.01633188 0.00544396 37 1 C37 6.94 37 12.88 37 19 C33.828262 20.585869 30.36486178 20.37866445 26.875 20.5625 C25.74384766 20.62727539 25.74384766 20.62727539 24.58984375 20.69335938 C22.72678112 20.7994832 20.86341476 20.90025001 19 21 C19.01160156 22.14339844 19.02320313 23.28679687 19.03515625 24.46484375 C19.04453288 25.95572754 19.05363321 27.44661309 19.0625 28.9375 C19.07087891 29.69224609 19.07925781 30.44699219 19.08789062 31.22460938 C19.09652441 33.14994313 19.05224333 35.07535581 19 37 C17.44926853 38.55073147 15.96937747 38.12969128 13.81640625 38.1328125 C12.97142578 38.13410156 12.12644531 38.13539063 11.25585938 38.13671875 C10.36705078 38.13285156 9.47824219 38.12898438 8.5625 38.125 C7.67755859 38.12886719 6.79261719 38.13273437 5.88085938 38.13671875 C5.03458984 38.13542969 4.18832031 38.13414062 3.31640625 38.1328125 C2.14766968 38.13112061 2.14766968 38.13112061 0.95532227 38.12939453 C-1 38 -1 38 -3 37 C-3 29.08 -3 21.16 -3 13 C-2.01 13 -1.02 13 0 13 C0 20.59 0 28.18 0 36 C5.61 36 11.22 36 17 36 C17 30.06 17 24.12 17 18 C22.94 18 28.88 18 35 18 C35 12.72 35 7.44 35 2 C23.78 2 12.56 2 1 2 C0.67 1.34 0.34 0.68 0 0 Z " fill="#C65457" transform="translate(178,195)"/>
<path d="M0 0 C0.66 0 1.32 0 2 0 C2 5.94 2 11.88 2 18 C5.465 17.505 5.465 17.505 9 17 C12.0104501 16.88915869 14.98553198 16.95362357 18 17 C18 11.39 18 5.78 18 0 C18.66 0 19.32 0 20 0 C22.44989101 3.74235319 22.23086143 7.44225419 22.125 11.75 C22.11597656 12.44738281 22.10695312 13.14476562 22.09765625 13.86328125 C22.07419888 15.57566958 22.03833104 17.28788004 22 19 C18.69005287 20.65497356 15.00877 20.10084335 11.375 20.0625 C10.57320312 20.05798828 9.77140625 20.05347656 8.9453125 20.04882812 C6.96350994 20.03703168 4.98174567 20.01909605 3 20 C3 24.95 3 29.9 3 35 C4.82337891 34.98259766 4.82337891 34.98259766 6.68359375 34.96484375 C8.26822764 34.95546722 9.85286318 34.94636687 11.4375 34.9375 C12.23994141 34.92912109 13.04238281 34.92074219 13.86914062 34.91210938 C15.91295221 34.9034857 17.95683902 34.9477185 20 35 C21 36 21 36 21.09765625 39.59765625 C21.09191272 41.08597255 21.07889891 42.57426296 21.0625 44.0625 C21.041875 46.681875 21.02125 49.30125 21 52 C26.28 52.33 31.56 52.66 37 53 C37 53.33 37 53.66 37 54 C31.39 54 25.78 54 20 54 C19.67 48.39 19.34 42.78 19 37 C13.06 36.67 7.12 36.34 1 36 C1 30.06 1 24.12 1 18 C-4.61 18 -10.22 18 -16 18 C-16 17.67 -16 17.34 -16 17 C-10.72 17 -5.44 17 0 17 C0 11.39 0 5.78 0 0 Z " fill="#BB2628" transform="translate(176,250)"/>
<path d="M0 0 C0.33 0 0.66 0 1 0 C1 5.61 1 11.22 1 17 C6.94 17 12.88 17 19 17 C19 11.39 19 5.78 19 0 C19.33 0 19.66 0 20 0 C20.06058594 0.91523438 20.12117188 1.83046875 20.18359375 2.7734375 C20.30927734 4.55621094 20.30927734 4.55621094 20.4375 6.375 C20.51871094 7.55835938 20.59992188 8.74171875 20.68359375 9.9609375 C20.81084936 12.91518901 20.81084936 12.91518901 22 15 C24.28330749 15.25694509 26.57920012 15.40610225 28.875 15.5 C35.66849015 15.77899344 35.66849015 15.77899344 39 18 C39.22296203 20.64581609 39.28148752 22.99279502 39.1875 25.625 C39.0946875 29.275625 39.0946875 29.275625 39 33 C43.95 33 48.9 33 54 33 C54 28.05 54 23.1 54 18 C54.33 18 54.66 18 55 18 C55 23.94 55 29.88 55 36 C49.06 36 43.12 36 37 36 C37 41.94 37 47.88 37 54 C36.67 54 36.34 54 36 54 C35.8808796 41.94236848 36.17729546 30.03205383 37 18 C31.06 18 25.12 18 19 18 C19 23.94 19 29.88 19 36 C18.67 36 18.34 36 18 36 C18 30.06 18 24.12 18 18 C12.06 18 6.12 18 0 18 C0 12.06 0 6.12 0 0 Z " fill="#C73136" transform="translate(195,305)"/>
<path d="M0 0 C5.61 0 11.22 0 17 0 C17 0.66 17 1.32 17 2 C12.05 2 7.1 2 2 2 C1.67 5.63 1.34 9.26 1 13 C1.96421875 12.97679687 2.9284375 12.95359375 3.921875 12.9296875 C5.81679687 12.90261719 5.81679687 12.90261719 7.75 12.875 C9.00296875 12.85179687 10.2559375 12.82859375 11.546875 12.8046875 C14.7470772 12.98569441 16.4423137 13.13092155 19 15 C21.04590033 20.11475081 21.1897197 24.59298867 21 30 C21.73605469 30.03738281 22.47210938 30.07476562 23.23046875 30.11328125 C33.7135217 30.81953713 33.7135217 30.81953713 37 34 C38.43493447 37.62150127 39.01097875 40.41812609 38.9375 44.3125 C38.958125 45.199375 38.97875 46.08625 39 47 C43.0580019 49.7053346 46.50159813 49.42431991 51.28515625 49.65625 C54 50 54 50 56 52 C56.1953125 55.2578125 56.1953125 55.2578125 56.125 59.125 C56.10695312 60.40632813 56.08890625 61.68765625 56.0703125 63.0078125 C56.04710937 63.99523437 56.02390625 64.98265625 56 66 C57.32 66 58.64 66 60 66 C60 66.66 60 67.32 60 68 C58.35 68 56.7 68 55 68 C54.95101562 66.92878906 54.90203125 65.85757813 54.8515625 64.75390625 C54.77654706 63.35674361 54.7009987 61.9596095 54.625 60.5625 C54.5940625 59.85544922 54.563125 59.14839844 54.53125 58.41992188 C54.42719371 56.60760812 54.22080108 54.80182012 54 53 C50.17042789 51.08521394 45.41138587 51.64101707 41.1875 51.4765625 C40.135625 51.31929688 39.08375 51.16203125 38 51 C35.65199415 47.47799123 35.65523117 45.55358551 35.4375 41.375 C35.57346982 37.3682245 35.57346982 37.3682245 34 34 C31.69104731 33.78982984 29.37726031 33.63160059 27.0625 33.5 C20.22043628 33.11021814 20.22043628 33.11021814 18 32 C17.68669533 29.27779617 17.48735017 26.6677157 17.375 23.9375 C17.25125 21.318125 17.1275 18.69875 17 16 C11.39 15.67 5.78 15.34 0 15 C0 10.05 0 5.1 0 0 Z " fill="#E5090B" transform="translate(179,270)"/>
<path d="M0 0 C0.33 0 0.66 0 1 0 C1 6.27 1 12.54 1 19 C-2.06533164 20.53266582 -5.26754272 20.10276471 -8.625 20.0625 C-9.33140625 20.05798828 -10.0378125 20.05347656 -10.765625 20.04882812 C-12.51045275 20.03703875 -14.255237 20.01910324 -16 20 C-15.97679687 20.80824219 -15.95359375 21.61648438 -15.9296875 22.44921875 C-15.91164063 23.51785156 -15.89359375 24.58648437 -15.875 25.6875 C-15.85179687 26.74324219 -15.82859375 27.79898437 -15.8046875 28.88671875 C-16 32 -16 32 -18 37 C-23.94 37 -29.88 37 -36 37 C-36 42.94 -36 48.88 -36 55 C-41.94 55 -47.88 55 -54 55 C-54 54.67 -54 54.34 -54 54 C-48.39 54 -42.78 54 -37 54 C-37 48.06 -37 42.12 -37 36 C-28.585 35.505 -28.585 35.505 -20 35 C-19.71080741 29.4505765 -19.71080741 29.4505765 -19.43188477 23.90063477 C-19.11111111 18.11111111 -19.11111111 18.11111111 -18 17 C-15.14122091 16.76298761 -12.30116703 16.57780818 -9.4375 16.4375 C-8.63119141 16.39431641 -7.82488281 16.35113281 -6.99414062 16.30664062 C-4.99631195 16.20024738 -2.9981793 16.09959112 -1 16 C-0.67 10.72 -0.34 5.44 0 0 Z " fill="#D00C0D" transform="translate(304,268)"/>
<path d="M0 0 C16.5 0 33 0 50 0 C50 0.33 50 0.66 50 1 C35.02046936 2.32102947 20.02318657 2.09899707 5 2 C4.690625 2.639375 4.38125 3.27875 4.0625 3.9375 C3 6 3 6 2 7 C1.95936168 8.66617115 1.957279 10.33388095 2 12 C8.89618858 12.90570419 15.61208545 13.1222984 22.5625 13.0625 C23.57119141 13.05798828 24.57988281 13.05347656 25.61914062 13.04882812 C28.07949147 13.03716769 30.53971239 13.02080378 33 13 C31 15 31 15 28.03491211 15.24291992 C26.79491455 15.23881104 25.55491699 15.23470215 24.27734375 15.23046875 C23.61666397 15.23001053 22.95598419 15.22955231 22.27528381 15.2290802 C20.87906091 15.22605921 19.48284133 15.21817742 18.08666992 15.20581055 C15.94242502 15.18754196 13.79861151 15.18530094 11.65429688 15.18554688 C1.14743212 15.14743212 1.14743212 15.14743212 0 14 C0 9.38 0 4.76 0 0 Z " fill="#E60907" transform="translate(179,179)"/>
<path d="M0 0 C5.94 0 11.88 0 18 0 C18 5.94 18 11.88 18 18 C23.94 18 29.88 18 36 18 C36 18.33 36 18.66 36 19 C30.06 19 24.12 19 18 19 C18 42.43 18 65.86 18 90 C17.01 90 16.02 90 15 90 C15.495 89.505 15.495 89.505 16 89 C16.0942174 86.88318683 16.11742761 84.76319242 16.11352539 82.64428711 C16.11367142 81.98089828 16.11381744 81.31750946 16.1139679 80.63401794 C16.11326881 78.43176044 16.10547665 76.22958655 16.09765625 74.02734375 C16.09579206 72.50419664 16.09436816 70.98104893 16.09336853 69.457901 C16.08954346 65.44162349 16.07971328 61.42538192 16.06866455 57.40911865 C16.05845019 53.31376634 16.05387086 49.21840824 16.04882812 45.12304688 C16.038091 37.08201472 16.02101472 29.04101183 16 21 C13.16730334 19.58365167 10.52533562 19.6536995 7.375 19.4375 C6.18648438 19.35371094 4.99796875 19.26992187 3.7734375 19.18359375 C2.40058594 19.09271484 2.40058594 19.09271484 1 19 C1 18.67 1 18.34 1 18 C6.28 18 11.56 18 17 18 C17 12.39 17 6.78 17 1 C11.39 1 5.78 1 0 1 C0 0.67 0 0.34 0 0 Z " fill="#550D11" transform="translate(323,177)"/>
<path d="M0 0 C1.93719378 -0.05406122 3.87481921 -0.09282025 5.8125 -0.125 C6.89144531 -0.14820313 7.97039062 -0.17140625 9.08203125 -0.1953125 C12 0 12 0 15 2 C15.3742218 4.80859375 15.3742218 4.80859375 15.37231445 8.4375 C15.37596512 9.09782227 15.37961578 9.75814453 15.38337708 10.43847656 C15.39149748 12.62591092 15.37786108 14.81260791 15.36328125 17 C15.36276282 18.51692708 15.36327986 20.03385484 15.36479187 21.55078125 C15.36470208 24.73187269 15.35425924 27.91271105 15.33618164 31.09375 C15.31349405 35.17629625 15.31294957 39.25847252 15.31969929 43.34106445 C15.32303692 46.47399193 15.3164131 49.60683467 15.30657005 52.73974609 C15.3027142 54.24527544 15.30157143 55.75081421 15.3031559 57.25634766 C15.30352577 59.3585819 15.29092906 61.46033749 15.2746582 63.5625 C15.27005081 64.76003906 15.26544342 65.95757812 15.26069641 67.19140625 C15 70 15 70 13 72 C9.9609375 72.1953125 9.9609375 72.1953125 6.375 72.125 C5.18648438 72.10695313 3.99796875 72.08890625 2.7734375 72.0703125 C1.85820312 72.04710937 0.94296875 72.02390625 0 72 C0 71.34 0 70.68 0 70 C6.435 69.01 6.435 69.01 13 68 C13.33 46.55 13.66 25.1 14 3 C10.99221479 1.99740493 8.46179353 1.69685358 5.3125 1.4375 C4.31863281 1.35371094 3.32476562 1.26992187 2.30078125 1.18359375 C1.16189453 1.09271484 1.16189453 1.09271484 0 1 C0 0.67 0 0.34 0 0 Z " fill="#6C090C" transform="translate(325,196)"/>
<path d="M0 0 C0.33 0 0.66 0 1 0 C1 5.61 1 11.22 1 17 C6.94 17 12.88 17 19 17 C19 11.39 19 5.78 19 0 C19.33 0 19.66 0 20 0 C20.06058594 0.91523438 20.12117188 1.83046875 20.18359375 2.7734375 C20.30927734 4.55621094 20.30927734 4.55621094 20.4375 6.375 C20.51871094 7.55835938 20.59992188 8.74171875 20.68359375 9.9609375 C20.81084936 12.91518901 20.81084936 12.91518901 22 15 C24.32525266 15.25577779 26.66262127 15.40575086 29 15.5 C31.33737873 15.59424914 33.67474734 15.74422221 36 16 C36.495 16.99 36.495 16.99 37 18 C31.06 18 25.12 18 19 18 C19 23.94 19 29.88 19 36 C18.67 36 18.34 36 18 36 C18 30.06 18 24.12 18 18 C12.06 18 6.12 18 0 18 C0 12.06 0 6.12 0 0 Z " fill="#9A4F4D" transform="translate(195,305)"/>
<path d="M0 0 C0.66 0 1.32 0 2 0 C4.44989101 3.74235319 4.23086143 7.44225419 4.125 11.75 C4.11597656 12.44738281 4.10695312 13.14476562 4.09765625 13.86328125 C4.07419888 15.57566958 4.03833104 17.28788004 4 19 C0.69005287 20.65497356 -2.99123 20.10084335 -6.625 20.0625 C-7.42679688 20.05798828 -8.22859375 20.05347656 -9.0546875 20.04882812 C-11.03649006 20.03703168 -13.01825433 20.01909605 -15 20 C-15 24.95 -15 29.9 -15 35 C-15.33 35 -15.66 35 -16 35 C-16 29.39 -16 23.78 -16 18 C-10.33966563 17.1913808 -5.62776803 16.91341895 0 17 C0 11.39 0 5.78 0 0 Z " fill="#CC2B2B" transform="translate(194,250)"/>
<path d="M0 0 C2.97922593 -0.02683987 5.95821295 -0.04676037 8.9375 -0.0625 C9.78763672 -0.07087891 10.63777344 -0.07925781 11.51367188 -0.08789062 C12.32255859 -0.09111328 13.13144531 -0.09433594 13.96484375 -0.09765625 C14.7137085 -0.10289307 15.46257324 -0.10812988 16.23413086 -0.11352539 C18 0 18 0 19 1 C19 6.28 19 11.56 19 17 C30.88 17 42.76 17 55 17 C55 17.33 55 17.66 55 18 C49.74894558 18.02464928 44.49792455 18.04283568 39.24682617 18.05493164 C37.45905979 18.05997218 35.67129755 18.06680454 33.88354492 18.07543945 C31.31948832 18.0875173 28.75548603 18.09323094 26.19140625 18.09765625 C24.98515343 18.10539818 24.98515343 18.10539818 23.75453186 18.11329651 C21.83598285 18.11349215 19.91754632 18.06201983 18 18 C16.01783097 16.01783097 16.58949076 12.16679941 16.4375 9.4375 C16.293125 6.983125 16.14875 4.52875 16 2 C10.72 1.67 5.44 1.34 0 1 C0 0.67 0 0.34 0 0 Z " fill="#A71214" transform="translate(213,178)"/>
<path d="M0 0 C0.33 0 0.66 0 1 0 C1.08114106 1.77007714 1.13925505 3.54122098 1.1875 5.3125 C1.23970703 6.79169922 1.23970703 6.79169922 1.29296875 8.30078125 C1 11 1 11 -0.23828125 12.80859375 C-2.36500737 14.24684534 -3.82580518 14.52379159 -6.375 14.75 C-7.12523437 14.82734375 -7.87546875 14.9046875 -8.6484375 14.984375 C-11 15 -11 15 -16 14 C-16.33 18.95 -16.66 23.9 -17 29 C-17.99 29 -18.98 29 -20 29 C-19.88660796 26.35319096 -19.75987127 23.70822482 -19.625 21.0625 C-19.5940625 20.30775391 -19.563125 19.55300781 -19.53125 18.77539062 C-19.4273685 16.84492605 -19.22104386 14.92057919 -19 13 C-15.15109373 11.07554687 -10.43051935 11.52470193 -6.1875 11.28125 C-3.10577487 11.20574918 -3.10577487 11.20574918 -1 10 C-0.53248212 7.64400765 -0.53248212 7.64400765 -0.375 4.9375 C-0.30023438 4.01839844 -0.22546875 3.09929687 -0.1484375 2.15234375 C-0.09945312 1.44207031 -0.05046875 0.73179687 0 0 Z " fill="#E40A0B" transform="translate(216,203)"/>
<path d="M0 0 C0.33 0 0.66 0 1 0 C1 6.27 1 12.54 1 19 C-2.06533164 20.53266582 -5.26754272 20.10276471 -8.625 20.0625 C-9.33140625 20.05798828 -10.0378125 20.05347656 -10.765625 20.04882812 C-12.51045275 20.03703875 -14.255237 20.01910324 -16 20 C-15.97679687 20.81984375 -15.95359375 21.6396875 -15.9296875 22.484375 C-15.91164063 23.56203125 -15.89359375 24.6396875 -15.875 25.75 C-15.85179687 26.81734375 -15.82859375 27.8846875 -15.8046875 28.984375 C-15.99512313 31.92470106 -16.47329896 33.52361878 -18 36 C-18.02684312 33.18743719 -18.04676188 30.37512759 -18.0625 27.5625 C-18.07087891 26.76005859 -18.07925781 25.95761719 -18.08789062 25.13085938 C-18.0965143 23.08704779 -18.0522815 21.04316098 -18 19 C-17 18 -17 18 -13.18359375 17.90234375 C-11.60152953 17.90808862 -10.01948969 17.92110407 -8.4375 17.9375 C-5.653125 17.958125 -2.86875 17.97875 0 18 C0 12.06 0 6.12 0 0 Z " fill="#B00405" transform="translate(304,268)"/>
<path d="M0 0 C5.61 0 11.22 0 17 0 C17 5.94 17 11.88 17 18 C16.34 18 15.68 18 15 18 C15 13.05 15 8.1 15 3 C10.05 3 5.1 3 0 3 C0 2.01 0 1.02 0 0 Z " fill="#2F0000" transform="translate(160,268)"/>
<path d="M0 0 C5.94 0 11.88 0 18 0 C18 5.94 18 11.88 18 18 C23.94 18 29.88 18 36 18 C36 18.33 36 18.66 36 19 C24.19911778 19.83375798 12.79432563 20.0574223 1 19 C1 18.67 1 18.34 1 18 C6.28 18 11.56 18 17 18 C17 12.39 17 6.78 17 1 C11.39 1 5.78 1 0 1 C0 0.67 0 0.34 0 0 Z " fill="#58494A" transform="translate(323,177)"/>
<path d="M0 0 C1.39120471 0.00015906 2.78241534 0.00585033 4.17358398 0.01586914 C4.90463852 0.01728409 5.63569305 0.01869904 6.38890076 0.02015686 C8.73253406 0.02577131 11.07607313 0.03832617 13.41967773 0.05102539 C15.00496282 0.05603853 16.59024939 0.06060176 18.17553711 0.06469727 C22.06948316 0.07489618 25.9632245 0.09446852 29.85717773 0.11352539 C29.85717773 5.06352539 29.85717773 10.01352539 29.85717773 15.11352539 C29.52717773 15.11352539 29.19717773 15.11352539 28.85717773 15.11352539 C28.85717773 10.49352539 28.85717773 5.87352539 28.85717773 1.11352539 C18.95717773 1.44352539 9.05717773 1.77352539 -1.14282227 2.11352539 C-1.80282227 7.06352539 -2.46282227 12.01352539 -3.14282227 17.11352539 C-3.47282227 17.11352539 -3.80282227 17.11352539 -4.14282227 17.11352539 C-4.16966905 14.46762525 -4.18958583 11.82199443 -4.20532227 9.17602539 C-4.21370117 8.4212793 -4.22208008 7.6665332 -4.23071289 6.88891602 C-4.23934667 4.96358226 -4.19506559 3.03816958 -4.14282227 1.11352539 C-3.14282227 0.11352539 -3.14282227 0.11352539 0 0 Z " fill="#E20A08" transform="translate(274.142822265625,178.886474609375)"/>
<path d="M0 0 C5.94 0 11.88 0 18 0 C18.33 6.27 18.66 12.54 19 19 C18.01 18.67 17.02 18.34 16 18 C15.67 13.05 15.34 8.1 15 3 C10.05 2.67 5.1 2.34 0 2 C0 1.34 0 0.68 0 0 Z " fill="#5C0C0E" transform="translate(305,177)"/>
<path d="M0 0 C0 1.65 0 3.3 0 5 C-8.415 5.495 -8.415 5.495 -17 6 C-17.33 10.95 -17.66 15.9 -18 21 C-20.64 21 -23.28 21 -26 21 C-25.67 20.34 -25.34 19.68 -25 19 C-23.35 19 -21.7 19 -20 19 C-20.02320313 18.08476562 -20.04640625 17.16953125 -20.0703125 16.2265625 C-20.09738281 14.44378906 -20.09738281 14.44378906 -20.125 12.625 C-20.14820313 11.44164062 -20.17140625 10.25828125 -20.1953125 9.0390625 C-20 6 -20 6 -18 4 C-15.01245116 3.65137909 -12.04790327 3.55712423 -9.04296875 3.44140625 C-5.83592006 2.97619893 -2.86787329 0 0 0 Z " fill="#EA070A" transform="translate(267,317)"/>
<path d="M0 0 C5.61 0 11.22 0 17 0 C17 5.61 17 11.22 17 17 C16.34 17 15.68 17 15 17 C15 13.7 15 10.4 15 7 C14.01 7 13.02 7 12 7 C12 6.34 12 5.68 12 5 C12.99 5 13.98 5 15 5 C15 4.01 15 3.02 15 2 C14.08476562 2.02320313 13.16953125 2.04640625 12.2265625 2.0703125 C10.44378906 2.09738281 10.44378906 2.09738281 8.625 2.125 C6.84996094 2.15980469 6.84996094 2.15980469 5.0390625 2.1953125 C2 2 2 2 0 0 Z " fill="#250000" transform="translate(196,305)"/>
<path d="M0 0 C0.66 0 1.32 0 2 0 C3.52474938 5.08249795 2.62168072 9.81932732 2 15 C6.95 14.67 11.9 14.34 17 14 C17 14.99 17 15.98 17 17 C11.39 17 5.78 17 0 17 C0 11.39 0 5.78 0 0 Z " fill="#170000" transform="translate(323,178)"/>
<path d="M0 0 C0.33 0 0.66 0 1 0 C1 5.94 1 11.88 1 18 C-5.27 18 -11.54 18 -18 18 C-16 16 -16 16 -12.5234375 15.8046875 C-11.14049032 15.81798507 -9.75761346 15.84183768 -8.375 15.875 C-7.66859375 15.88402344 -6.9621875 15.89304687 -6.234375 15.90234375 C-4.48943902 15.92592397 -2.74467705 15.96179539 -1 16 C-1.01160156 15.01257813 -1.02320313 14.02515625 -1.03515625 13.0078125 C-1.04417969 11.72648437 -1.05320312 10.44515625 -1.0625 9.125 C-1.07410156 7.84882813 -1.08570313 6.57265625 -1.09765625 5.2578125 C-1 2 -1 2 0 0 Z " fill="#550B0C" transform="translate(304,287)"/>
<path d="M0 0 C0.99 0 1.98 0 3 0 C3 7.59 3 15.18 3 23 C8.28 23 13.56 23 19 23 C19 23.33 19 23.66 19 24 C16.20865148 24.19425873 13.41716313 24.38069517 10.625 24.5625 C9.8309375 24.61857422 9.036875 24.67464844 8.21875 24.73242188 C2.2265625 25.11328125 2.2265625 25.11328125 0 24 C0 16.08 0 8.16 0 0 Z " fill="#E65A57" transform="translate(175,208)"/>
<path d="M0 0 C0.33 0 0.66 0 1 0 C1.02684679 2.64590014 1.04676357 5.29153096 1.0625 7.9375 C1.07087891 8.69224609 1.07925781 9.44699219 1.08789062 10.22460938 C1.09652441 12.14994313 1.05224333 14.07535581 1 16 C0 17 0 17 -3.59765625 17.09765625 C-5.08596867 17.0909822 -6.57426432 17.07902183 -8.0625 17.0625 C-8.82111328 17.05798828 -9.57972656 17.05347656 -10.36132812 17.04882812 C-12.24091871 17.0370068 -14.12046899 17.01907078 -16 17 C-15.67 16.34 -15.34 15.68 -15 15 C-13.96939453 15.05220703 -13.96939453 15.05220703 -12.91796875 15.10546875 C-12.01691406 15.13253906 -11.11585938 15.15960938 -10.1875 15.1875 C-9.29417969 15.22230469 -8.40085937 15.25710938 -7.48046875 15.29296875 C-4.99666095 15.18522301 -4.99666095 15.18522301 -3.21484375 13.83984375 C-1.56094308 11.33506171 -1.52438622 9.35486194 -1.375 6.375 C-1.08333333 1.08333333 -1.08333333 1.08333333 0 0 Z " fill="#5E0B0E" transform="translate(322,269)"/>
<path d="M0 0 C0.33 0 0.66 0 1 0 C1.02684312 2.81256281 1.04676188 5.62487241 1.0625 8.4375 C1.07087891 9.23994141 1.07925781 10.04238281 1.08789062 10.86914062 C1.0965143 12.91295221 1.0522815 14.95683902 1 17 C0 18 0 18 -3.81640625 18.09765625 C-5.39846682 18.09098089 -6.98051159 18.07901875 -8.5625 18.0625 C-9.36880859 18.05798828 -10.17511719 18.05347656 -11.00585938 18.04882812 C-13.00393756 18.03700518 -15.00197783 18.01906914 -17 18 C-17 17.34 -17 16.68 -17 16 C-16.01257813 15.93941406 -15.02515625 15.87882812 -14.0078125 15.81640625 C-12.72648438 15.73261719 -11.44515625 15.64882813 -10.125 15.5625 C-8.84882813 15.48128906 -7.57265625 15.40007812 -6.2578125 15.31640625 C-3.11699848 15.20793973 -3.11699848 15.20793973 -1 14 C-0.52998967 10.72444392 -0.52998967 10.72444392 -0.375 6.9375 C-0.30023438 5.64714844 -0.22546875 4.35679687 -0.1484375 3.02734375 C-0.09945313 2.02832031 -0.05046875 1.02929688 0 0 Z " fill="#630C0E" transform="translate(267,323)"/>
<path d="M0 0 C0.33 0 0.66 0 1 0 C1.02685095 2.47923801 1.04676547 4.9581884 1.0625 7.4375 C1.07087891 8.14455078 1.07925781 8.85160156 1.08789062 9.58007812 C1.09653588 11.38693559 1.05220011 13.19387603 1 15 C0 16 0 16 -3.81640625 16.09765625 C-5.39846682 16.09098089 -6.98051159 16.07901875 -8.5625 16.0625 C-9.36880859 16.05798828 -10.17511719 16.05347656 -11.00585938 16.04882812 C-13.00393756 16.03700518 -15.00197783 16.01906914 -17 16 C-16.67 15.34 -16.34 14.68 -16 14 C-12.83984375 13.5859375 -12.83984375 13.5859375 -8.9375 13.375 C-7.64714844 13.30023438 -6.35679687 13.22546875 -5.02734375 13.1484375 C-4.02832031 13.09945313 -3.02929688 13.05046875 -2 13 C-1.34 8.71 -0.68 4.42 0 0 Z " fill="#610A0E" transform="translate(285,307)"/>
<path d="M0 0 C1.49574876 2.99149753 0.64805018 5.29881021 0.125 8.5625 C-0.05804688 9.73941406 -0.24109375 10.91632813 -0.4296875 12.12890625 C-1 15 -1 15 -2 16 C-4.01964199 16.07244053 -6.04167124 16.08377188 -8.0625 16.0625 C-9.16722656 16.05347656 -10.27195312 16.04445313 -11.41015625 16.03515625 C-12.69212891 16.01775391 -12.69212891 16.01775391 -14 16 C-13.67 15.01 -13.34 14.02 -13 13 C-9.37 13 -5.74 13 -2 13 C-2.04125 11.5975 -2.0825 10.195 -2.125 8.75 C-2.22880021 5.22079273 -1.78409802 3.06246747 0 0 Z " fill="#7A0405" transform="translate(285,305)"/>
<path d="M0 0 C2.19896869 4.39793738 0.37969311 11.35930648 0 16 C-4.62 16 -9.24 16 -14 16 C-11.81956172 13.81956172 -10.97566473 13.43759775 -8 13 C-6.66018514 13.3062434 -5.32488113 13.63451555 -4 14 C-2.20094026 12.20094026 -2.36758565 9.43525496 -2 7 C-1.11111111 1.11111111 -1.11111111 1.11111111 0 0 Z " fill="#780405" transform="translate(303,287)"/>
<path d="M0 0 C5.61 0 11.22 0 17 0 C17 0.33 17 0.66 17 1 C12.38 1.33 7.76 1.66 3 2 C2.87625 3.753125 2.7525 5.50625 2.625 7.3125 C2.35277339 11.16904361 2.18994248 12.71508627 0 16 C0 10.72 0 5.44 0 0 Z " fill="#A10000" transform="translate(250,323)"/>
<path d="M0 0 C0.33 0.66 0.66 1.32 1 2 C-0.48113281 2.03867187 -0.48113281 2.03867187 -1.9921875 2.078125 C-3.27351563 2.13484375 -4.55484375 2.1915625 -5.875 2.25 C-7.15117187 2.29640625 -8.42734375 2.3428125 -9.7421875 2.390625 C-13.00623541 2.64295824 -13.00623541 2.64295824 -14.40625 4.6875 C-15.10124918 7.3943389 -15.42583378 9.96167291 -15.625 12.75 C-15.69976562 13.73484375 -15.77453125 14.7196875 -15.8515625 15.734375 C-15.92503906 16.85585938 -15.92503906 16.85585938 -16 18 C-16.33 18 -16.66 18 -17 18 C-17 12.39 -17 6.78 -17 1 C-8.585 0.505 -8.585 0.505 0 0 Z " fill="#230100" transform="translate(285,322)"/>
<path d="M0 0 C2.46121433 4.92242867 2.5690025 8.54069833 3 14 C7.29 14.33 11.58 14.66 16 15 C16 15.33 16 15.66 16 16 C10.72 16 5.44 16 0 16 C0 10.72 0 5.44 0 0 Z " fill="#9A0000" transform="translate(305,179)"/>
<path d="M0 0 C5.94 0 11.88 0 18 0 C18 0.99 18 1.98 18 3 C17.01 3.33 16.02 3.66 15 4 C14.67 3.67 14.34 3.34 14 3 C11.65012738 2.76472227 9.29443961 2.58613583 6.9375 2.4375 C5.64714844 2.35371094 4.35679687 2.26992188 3.02734375 2.18359375 C1.52880859 2.09271484 1.52880859 2.09271484 0 2 C0 1.34 0 0.68 0 0 Z " fill="#300000" transform="translate(232,341)"/>
<path d="M0 0 C5.61 0 11.22 0 17 0 C17 0.33 17 0.66 17 1 C12.38 1.33 7.76 1.66 3 2 C2.34 6.95 1.68 11.9 1 17 C0.67 17 0.34 17 0 17 C0 11.39 0 5.78 0 0 Z " fill="#A20101" transform="translate(268,305)"/>
<path d="M0 0 C5.94 0 11.88 0 18 0 C18 0.33 18 0.66 18 1 C16.35 1 14.7 1 13 1 C13 1.66 13 2.32 13 3 C7.52667068 4.46845421 4.88077452 3.44038726 0 1 C0 0.67 0 0.34 0 0 Z " fill="#D50809" transform="translate(304,195)"/>
<path d="M0 0 C0.33 0 0.66 0 1 0 C1.02714735 2.22909871 1.04646254 4.45829367 1.0625 6.6875 C1.07410156 7.92886719 1.08570313 9.17023438 1.09765625 10.44921875 C1.01478673 13.46235454 0.70839449 16.08275339 0 19 C-0.66 19 -1.32 19 -2 19 C-2 15.04 -2 11.08 -2 7 C-1.34 7 -0.68 7 0 7 C0 4.69 0 2.38 0 0 Z " fill="#F00506" transform="translate(163,232)"/>
<path d="M0 0 C4.95 0 9.9 0 15 0 C15 3.63 15 7.26 15 11 C13.11656068 7.23312136 12.77942165 5.97041037 13 2 C11.39667209 1.91878076 9.79215974 1.86070866 8.1875 1.8125 C6.84751953 1.76029297 6.84751953 1.76029297 5.48046875 1.70703125 C2.58352485 2.04918998 1.77444972 2.75393573 0 5 C0 3.35 0 1.7 0 0 Z " fill="#DF0C0F" transform="translate(161,197)"/>
<path d="M0 0 C5.28 0 10.56 0 16 0 C16 4.95 16 9.9 16 15 C15.67 15 15.34 15 15 15 C14.95101562 14.14535156 14.90203125 13.29070312 14.8515625 12.41015625 C14.77679688 11.30542969 14.70203125 10.20070313 14.625 9.0625 C14.55539063 7.96035156 14.48578125 6.85820312 14.4140625 5.72265625 C14.27742187 4.82417969 14.14078125 3.92570312 14 3 C11.29816945 1.64908472 8.88191794 1.66141942 5.875 1.4375 C4.23144531 1.31181641 4.23144531 1.31181641 2.5546875 1.18359375 C1.71164063 1.12300781 0.86859375 1.06242187 0 1 C0 0.67 0 0.34 0 0 Z " fill="#140000" transform="translate(214,324)"/>
<path d="M0 0 C0.33 0 0.66 0 1 0 C1.02693575 2.12493141 1.04636628 4.24995912 1.0625 6.375 C1.07410156 7.55835938 1.08570313 8.74171875 1.09765625 9.9609375 C1 13 1 13 0 15 C-1.32 14.67 -2.64 14.34 -4 14 C-3.51917969 13.62230469 -3.03835938 13.24460937 -2.54296875 12.85546875 C-0.46337042 10.35468595 -0.50158423 8.52693196 -0.3125 5.3125 C-0.24675781 4.31863281 -0.18101562 3.32476562 -0.11328125 2.30078125 C-0.07589844 1.54152344 -0.03851563 0.78226562 0 0 Z " fill="#70060C" transform="translate(321,270)"/>
<path d="M0 0 C1.65 0 3.3 0 5 0 C4.2884375 0.7734375 4.2884375 0.7734375 3.5625 1.5625 C1.57190593 4.66782675 1.34939182 7.36632504 1 11 C0.67 11 0.34 11 0 11 C0 7.37 0 3.74 0 0 Z " fill="#910000" transform="translate(306,269)"/>
<path d="M0 0 C1.98 0 3.96 0 6 0 C5.01 0.495 5.01 0.495 4 1 C3.67 1.66 3.34 2.32 3 3 C2 5 2 5 0 6 C0 4.02 0 2.04 0 0 Z " fill="#EE0802" transform="translate(180,180)"/>
</svg>
